<?xml version="1.0" standalone="no"?>
<!DOCTYPE svg PUBLIC "-//W3C//DTD SVG 20010904//EN"
 "http://www.w3.org/TR/2001/REC-SVG-20010904/DTD/svg10.dtd">
<svg version="1.0" xmlns="http://www.w3.org/2000/svg"
 width="373.000000pt" height="373.000000pt" viewBox="0 0 373.000000 373.000000"
 preserveAspectRatio="xMidYMid meet">
<metadata>
Created by potrace 1.14, written by Peter Selinger 2001-2017
</metadata>
<g transform="translate(0.000000,373.000000) scale(0.100000,-0.100000)"
fill="#000000" stroke="none">
<path d="M3430 3690 c-113 -20 -405 -72 -650 -114 l-445 -78 -1159 -1158
-1159 -1158 123 -454 c67 -249 128 -459 135 -466 7 -8 216 -69 465 -138 l452
-124 27 20 c14 10 537 531 1162 1157 l1136 1138 93 692 c51 380 90 698 87 707
-8 21 -27 20 -267 -24z m173 -217 c-13 -98 -26 -184 -28 -190 -12 -37 -152 23
-227 98 -48 48 -91 121 -102 175 l-7 31 133 23 c73 12 149 26 168 30 19 4 47
8 61 9 l25 1 -23 -177z m-413 44 c36 -133 164 -257 313 -303 36 -11 57 -23 57
-33 0 -8 -25 -197 -56 -420 -52 -383 -57 -407 -80 -428 -13 -12 -43 -27 -67
-34 -98 -26 -207 17 -262 105 -27 44 -30 58 -30 127 0 71 3 81 33 124 57 81
29 107 -58 53 -47 -29 -61 -33 -124 -33 -81 1 -116 15 -170 71 -76 78 -87 190
-27 285 17 29 31 59 29 68 -5 24 -37 25 -62 2 -33 -32 -90 -51 -150 -51 -149
0 -265 147 -227 289 26 97 0 87 453 167 221 39 406 68 409 65 3 -3 12 -28 19
-54z m-922 -364 c34 -65 78 -110 140 -140 48 -24 69 -28 138 -28 l80 0 -6 -37
c-10 -54 5 -131 36 -189 l28 -50 -545 -545 -545 -545 -412 113 -413 112 733
733 733 733 6 -57 c3 -32 16 -77 27 -100z m521 -520 c46 -23 69 -28 134 -28
l78 0 -7 -41 c-25 -168 120 -333 296 -338 l40 -1 -732 -732 c-403 -403 -735
-733 -738 -733 -3 0 -54 183 -114 406 l-109 406 544 544 c299 299 546 544 548
544 2 0 29 -12 60 -27z m-1743 -1398 c78 -24 143 -80 184 -159 31 -61 35 -78
35 -146 0 -68 -4 -85 -35 -146 -95 -187 -336 -232 -494 -92 -68 59 -98 125
-104 224 -4 73 -1 88 23 143 67 149 233 224 391 176z"/>
</g>
</svg>
